<mxfile host="www.draw.io" modified="2020-01-19T12:06:29.058Z" agent="Mozilla/5.0 (Windows NT 10.0; Win64; x64) AppleWebKit/537.36 (KHTML, like Gecko) Chrome/79.0.3945.117 Safari/537.36" etag="NpJOof5Pr9TpH_y53EZ1" version="12.5.5" type="github">
  <diagram id="x4vuEY9rLKHHlELnsAPK" name="overall">
    <mxGraphModel dx="862" dy="450" grid="1" gridSize="10" guides="1" tooltips="1" connect="1" arrows="1" fold="1" page="1" pageScale="1" pageWidth="690" pageHeight="980" math="0" shadow="0">
      <root>
        <mxCell id="0"/>
        <mxCell id="1" parent="0"/>
        <mxCell id="TgnA66K3zzRxXvc7JwfN-13" value="" style="rounded=0;whiteSpace=wrap;html=1;fillColor=none;strokeWidth=3;strokeColor=#FF3333;" parent="1" vertex="1">
          <mxGeometry x="202" y="47" width="99" height="109" as="geometry"/>
        </mxCell>
        <mxCell id="TgnA66K3zzRxXvc7JwfN-1" value="ハードウェア" style="rounded=0;whiteSpace=wrap;html=1;fillColor=#dae8fc;strokeColor=#6c8ebf;fontSize=15;" parent="1" vertex="1">
          <mxGeometry x="200" y="201" width="200" height="40" as="geometry"/>
        </mxCell>
        <mxCell id="TgnA66K3zzRxXvc7JwfN-2" value="Linuxカーネル" style="rounded=0;whiteSpace=wrap;html=1;fillColor=#ffe6cc;strokeColor=#d79b00;fontSize=15;" parent="1" vertex="1">
          <mxGeometry x="200" y="158" width="200" height="40" as="geometry"/>
        </mxCell>
        <mxCell id="TgnA66K3zzRxXvc7JwfN-3" value="実行環境A" style="rounded=0;whiteSpace=wrap;html=1;fillColor=#f5f5f5;strokeColor=#666666;fontColor=#333333;fontSize=15;" parent="1" vertex="1">
          <mxGeometry x="206" y="120" width="90" height="33" as="geometry"/>
        </mxCell>
        <mxCell id="TgnA66K3zzRxXvc7JwfN-5" value="実行環境B" style="rounded=0;whiteSpace=wrap;html=1;fillColor=#f5f5f5;strokeColor=#666666;fontColor=#333333;fontSize=15;" parent="1" vertex="1">
          <mxGeometry x="304" y="120" width="90" height="33" as="geometry"/>
        </mxCell>
        <mxCell id="TgnA66K3zzRxXvc7JwfN-11" value="アプリA" style="rounded=1;whiteSpace=wrap;html=1;fillColor=#ffffff;fontSize=15;" parent="1" vertex="1">
          <mxGeometry x="207" y="54" width="90" height="60" as="geometry"/>
        </mxCell>
        <mxCell id="TgnA66K3zzRxXvc7JwfN-12" value="アプリB" style="rounded=1;whiteSpace=wrap;html=1;fillColor=#ffffff;fontSize=15;" parent="1" vertex="1">
          <mxGeometry x="304" y="54" width="90" height="60" as="geometry"/>
        </mxCell>
        <mxCell id="TgnA66K3zzRxXvc7JwfN-14" value="コンテナ" style="text;html=1;strokeColor=none;fillColor=none;align=center;verticalAlign=middle;whiteSpace=wrap;rounded=0;fontColor=#FF3333;" parent="1" vertex="1">
          <mxGeometry x="189" y="25" width="60" height="20" as="geometry"/>
        </mxCell>
        <mxCell id="TgnA66K3zzRxXvc7JwfN-15" value="" style="shape=curlyBracket;whiteSpace=wrap;html=1;rounded=1;strokeColor=#CCCCCC;strokeWidth=3;fillColor=none;fontColor=#FF3333;" parent="1" vertex="1">
          <mxGeometry x="394" y="97" width="20" height="82" as="geometry"/>
        </mxCell>
        <mxCell id="TgnA66K3zzRxXvc7JwfN-16" value="&lt;font style=&quot;font-size: 15px&quot;&gt;/var/lib：ライブラリ&lt;/font&gt;" style="text;html=1;strokeColor=none;fillColor=none;align=left;verticalAlign=middle;whiteSpace=wrap;rounded=0;fontColor=#000000;fontSize=15;" parent="1" vertex="1">
          <mxGeometry x="414" y="90" width="146" height="30" as="geometry"/>
        </mxCell>
        <mxCell id="TgnA66K3zzRxXvc7JwfN-20" value="&lt;font style=&quot;font-size: 15px&quot;&gt;/usr/bin：プログラム&lt;/font&gt;" style="text;html=1;strokeColor=none;fillColor=none;align=left;verticalAlign=middle;whiteSpace=wrap;rounded=0;fontColor=#000000;fontSize=15;" parent="1" vertex="1">
          <mxGeometry x="414" y="113" width="146" height="30" as="geometry"/>
        </mxCell>
        <mxCell id="TgnA66K3zzRxXvc7JwfN-21" value="&lt;font style=&quot;font-size: 15px&quot;&gt;/etc：設定ファイル&lt;/font&gt;" style="text;html=1;strokeColor=none;fillColor=none;align=left;verticalAlign=middle;whiteSpace=wrap;rounded=0;fontColor=#000000;fontSize=15;" parent="1" vertex="1">
          <mxGeometry x="414" y="137" width="136" height="30" as="geometry"/>
        </mxCell>
        <mxCell id="TgnA66K3zzRxXvc7JwfN-22" value="&lt;font style=&quot;font-size: 15px&quot;&gt;/var/log：ログ&lt;/font&gt;" style="text;html=1;strokeColor=none;fillColor=none;align=left;verticalAlign=middle;whiteSpace=wrap;rounded=0;fontColor=#000000;fontSize=15;" parent="1" vertex="1">
          <mxGeometry x="414" y="161" width="106" height="30" as="geometry"/>
        </mxCell>
      </root>
    </mxGraphModel>
  </diagram>
</mxfile>
